# xmcd
#
# Track frame offsets:
# 150
# 8685
# 18065
# 28044
# 38640
# 47737
# 67510
# 88237
# 98835
# 107940
#
# Disc length: 1582 seconds
#
#
# Revision: 0
# Processed by: cddbd v1.5.1PL0 Copyright (c) Steve Scherf et al.
# Submitted via: FreeRIP 2.80 
#
DISCID=6b062c0a
DTITLE=Fats Domino - The Fat Man
DYEAR=1900
DGENRE=Blues
TTITLE0=I'm Ready
TTITLE1=I Want To Walk You Home
TTITLE2=I'm Gonna Be A Wheel Someday
TTITLE3=Walking To New Orleans
TTITLE4=My Girl Josephine
TTITLE5=Let The Four Winds Blow
TTITLE6=Jambalaya
TTITLE7=Kansas City
TTITLE8=Me My Guest
TTITLE9=Blueberry Hill
EXTD=
EXTT0=
EXTT1=
EXTT2=
EXTT3=
EXTT4=
EXTT5=
EXTT6=
EXTT7=
EXTT8=
EXTT9=
PLAYORDER=
